<svg xmlns="http://www.w3.org/2000/svg" viewBox="0 0 1156 1156"><defs><style>.cls-1{isolation:isolate;}.cls-2{fill:#1172b6;fill-rule:evenodd;}</style></defs><title>Expo logo</title><g id="Exponent" class="cls-1"><g id="Exponent-2" data-name="Exponent"><path class="cls-2" d="M706.5,186.31c-39.22-58.91-48.16-66.59-127.63-66.7h-1.75c-79.47.11-88.4,7.79-127.63,66.7-36.69,55.11-401,717.15-401,735.49,0,26.94,7,52.19,32.14,88.15,25.55,36.53,69.5,56.59,101.56,24.39,21.63-21.73,255.58-421,368.33-572.32a34,34,0,0,1,55,0c112.75,151.3,346.69,550.59,368.33,572.32,32.06,32.2,76,12.13,101.56-24.39,25.15-36,32.14-61.21,32.14-88.15C1107.55,903.46,743.19,241.41,706.5,186.31Z"/></g></g></svg>