<svg width="3618.6000000000004" height="3618.6000000000004" xmlns="http://www.w3.org/2000/svg">
 <style>.st0{fill:none}.st1{fill:#F6F6F6}.st2{fill:none;stroke:#F6F6F6;stroke-width:144.7456;stroke-miterlimit:10}</style>

 <g>
  <title>background</title>
  <rect fill="none" id="canvas_background" height="402" width="582" y="-1" x="-1"/>
 </g>
 <g>
  <title>Layer 1</title>
  <circle id="svg_2" r="302.6" cy="1807.1" cx="1806.5" class="st1"/>
  <path id="svg_3" d="m1806.5,1191.9c406.2,0 783.6,58.3 1068.1,156.2c342.8,118 553.6,296.9 553.6,458.9c0,168.8 -223.4,358.9 -591.5,480.8c-278.3,92.2 -644.6,140.4 -1030.2,140.4c-395.4,0 -769.7,-45.2 -1051.2,-141.4c-356.1,-121.7 -570.6,-314.2 -570.6,-479.8c0,-160.7 201.3,-338.2 539.3,-456c285.6,-99.5 672.3,-159.1 1082.5,-159.1z" class="st2"/>
  <path id="svg_4" d="m1271,1501.3c202.9,-351.9 442,-649.7 669,-847.2c273.5,-238 533.8,-331.2 674.1,-250.3c146.2,84.3 199.3,372.8 121,752.7c-59.2,287.2 -200.4,628.5 -393.1,962.6c-197.5,342.5 -423.7,644.2 -647.6,840c-283.3,247.7 -557.3,337.3 -700.7,254.6c-139.2,-80.3 -192.4,-343.3 -125.7,-695c56.4,-297.4 198,-662.1 403,-1017.4z" class="st2"/>
  <path id="svg_5" d="m1271.5,2119.8c-203.5,-351.6 -342.1,-707.4 -399.9,-1002.7c-69.6,-355.8 -20.4,-627.9 119.8,-709c146.1,-84.6 422.5,13.5 712.5,271c219.3,194.7 444.4,487.5 637.6,821.3c198.1,342.2 346.6,688.8 404.3,980.5c73.1,369.2 13.9,651.3 -129.4,734.2c-139.1,80.5 -393.5,-4.7 -664.9,-238.2c-229.2,-197.3 -474.5,-502.1 -680,-857.1z" class="st2"/>
 </g>
</svg>